<svg xmlns="http://www.w3.org/2000/svg" width="149" height="44" viewBox="0 0 149 44" fill="none">
  <g clip-path="url(#clip0_2023_3184)">
    <mask id="mask0_2023_3184" style="mask-type:luminance" maskUnits="userSpaceOnUse" x="0" y="0" width="149" height="44">
      <path d="M148.649 0H0V44H148.649V0Z" fill="white"></path>
    </mask>
    <g mask="url(#mask0_2023_3184)">
      <path class="first-path" d="M13.1522 44.0001C12.9537 44.0001 12.7511 43.9781 12.5466 43.9361C11.2551 43.6601 10.3867 42.59 10.3867 41.272V24.9492H12.7852V41.272C12.7852 41.338 12.7852 41.542 13.0479 41.598C13.3126 41.654 13.3949 41.47 13.4209 41.408L20.3858 25.9273C20.6505 25.3393 20.6004 24.6932 20.2494 24.1512C19.8985 23.6112 19.3289 23.3012 18.6832 23.3012H4.48674C3.0328 23.3012 1.69517 22.5751 0.905034 21.3591C0.1169 20.143 0.000584453 18.6269 0.596198 17.3049L7.55906 1.82418C8.10052 0.620125 9.33387 9.72003e-05 10.6254 0.27411C11.9169 0.550122 12.7852 1.62017 12.7852 2.93823V19.265H10.3867V2.94023C10.3867 2.87423 10.3867 2.67022 10.122 2.61422C9.85728 2.55821 9.77306 2.74422 9.74698 2.80422L2.78412 18.2849C2.51941 18.873 2.56954 19.519 2.92049 20.059C3.27144 20.599 3.84299 20.909 4.48874 20.909H18.6872C20.1391 20.909 21.4768 21.6351 22.2669 22.8511C23.057 24.0672 23.1734 25.5833 22.5777 26.9053L15.6129 42.386C15.1576 43.3981 14.2131 44.0001 13.1542 44.0001" fill="#FF003A"></path>
      <path d="M35.5811 16.2986C35.5811 15.7786 35.8357 15.5186 36.3431 15.5186H37.1994C37.7088 15.5186 37.9615 15.7786 37.9615 16.3006V21.1228H44.0079V16.3006C44.0079 15.7786 44.2686 15.5186 44.79 15.5186H45.6263C46.1356 15.5186 46.3883 15.7786 46.3883 16.2986V27.9131C46.3883 28.4331 46.1336 28.6932 45.6263 28.6932H44.79C44.2686 28.6932 44.0079 28.4331 44.0079 27.9131V23.1629H37.9615V27.9131C37.9615 28.4331 37.7068 28.6932 37.1994 28.6932H36.3431C35.8337 28.6932 35.5811 28.4331 35.5811 27.9131V16.2986Z" fill="#050A23"></path>
      <path d="M48.2795 22.0132C48.2795 21.0731 48.448 20.1951 48.7829 19.3791C49.1178 18.563 49.5891 17.851 50.1967 17.245C50.8044 16.6389 51.5243 16.1629 52.3546 15.8169C53.1848 15.4709 54.1033 15.2969 55.108 15.2969C56.1128 15.2969 57.0292 15.4709 57.8615 15.8169C58.6917 16.1629 59.4117 16.6389 60.0193 17.245C60.627 17.851 61.0983 18.563 61.4332 19.3791C61.7681 20.1951 61.9345 21.0731 61.9345 22.0132C61.9345 22.9532 61.7681 23.8813 61.4332 24.7213C61.0983 25.5633 60.627 26.2954 60.0193 26.9194C59.4117 27.5434 58.6917 28.0335 57.8615 28.3855C57.0312 28.7375 56.1128 28.9135 55.108 28.9135C54.1033 28.9135 53.1848 28.7375 52.3546 28.3855C51.5243 28.0335 50.8044 27.5454 50.1967 26.9194C49.5891 26.2954 49.1178 25.5613 48.7829 24.7213C48.448 23.8813 48.2795 22.9772 48.2795 22.0132ZM50.7542 22.0132C50.7542 22.6812 50.8625 23.3032 51.0791 23.8773C51.2957 24.4533 51.5965 24.9493 51.9816 25.3713C52.3666 25.7914 52.8259 26.1234 53.3573 26.3634C53.8907 26.6054 54.4743 26.7254 55.106 26.7254C55.7377 26.7254 56.3213 26.6054 56.8548 26.3634C57.3882 26.1234 57.8475 25.7914 58.2305 25.3713C58.6155 24.9513 58.9163 24.4533 59.1329 23.8773C59.3495 23.3012 59.4578 22.6812 59.4578 22.0132C59.4578 21.3451 59.3495 20.7731 59.1329 20.2231C58.9163 19.6731 58.6155 19.1931 58.2305 18.785C57.8454 18.377 57.3862 18.059 56.8548 17.829C56.3213 17.601 55.7377 17.485 55.106 17.485C54.4743 17.485 53.8907 17.599 53.3573 17.829C52.8238 18.057 52.3646 18.377 51.9816 18.785C51.5965 19.1931 51.2957 19.6731 51.0791 20.2231C50.8625 20.7731 50.7542 21.3711 50.7542 22.0132Z" fill="#050A23"></path>
      <path d="M64.4689 16.2606C64.5311 15.7666 64.7978 15.5186 65.269 15.5186H66.4402C66.8734 15.5186 67.1662 15.7286 67.3146 16.1486L69.677 22.0309C69.7512 22.2289 69.8294 22.4389 69.9096 22.6609C69.9898 22.8829 70.062 23.0949 70.1242 23.2909L70.3468 23.9589H70.3829C70.4451 23.7369 70.5133 23.5129 70.5875 23.2909C70.6496 23.0929 70.7198 22.8829 70.802 22.6609C70.8823 22.4389 70.9605 22.2289 71.0347 22.0309L73.3971 16.1486C73.5455 15.7286 73.8443 15.5186 74.2895 15.5186H75.4426C75.9379 15.5186 76.2047 15.7666 76.2428 16.2606L77.1913 27.8931C77.2274 28.4251 76.9808 28.6912 76.4473 28.6912H75.6111C75.1157 28.6912 74.849 28.4431 74.8109 27.9491L74.3095 21.3248C74.2855 21.1148 74.2714 20.8888 74.2714 20.6468V19.9688C74.2714 19.7347 74.2775 19.5047 74.2895 19.2827H74.2534C74.1672 19.5427 74.0849 19.7908 74.0107 20.0248C73.9365 20.2348 73.8583 20.4588 73.7781 20.6928C73.6979 20.9288 73.6197 21.1388 73.5455 21.3228L71.6303 25.813C71.4819 26.221 71.1891 26.425 70.7559 26.425H69.9738C69.5266 26.425 69.2298 26.221 69.0814 25.813L67.1842 21.3228C67.11 21.1368 67.0298 20.9248 66.9416 20.6828C66.8553 20.4408 66.7731 20.2168 66.6989 20.0068C66.6127 19.7587 66.5305 19.5127 66.4563 19.2647H66.4182C66.4302 19.5007 66.4362 19.7347 66.4362 19.9708C66.4362 20.1808 66.4322 20.4068 66.4262 20.6488C66.4202 20.8908 66.4101 21.1148 66.3981 21.3268L65.8947 27.9511C65.8566 28.4451 65.5899 28.6932 65.0946 28.6932H64.2583C63.7249 28.6932 63.4762 28.4271 63.5143 27.8951L64.4629 16.2626L64.4689 16.2606Z" fill="#050A23"></path>
      <path d="M79.8181 16.2986C79.8181 15.7786 80.0728 15.5186 80.5802 15.5186H86.9434C87.4648 15.5186 87.7255 15.7766 87.7255 16.2906V16.8046C87.7255 17.3066 87.4648 17.5586 86.9434 17.5586H82.2006V21.0468H85.8845C86.406 21.0468 86.6667 21.2988 86.6667 21.8008V22.3149C86.6667 22.8309 86.406 23.0869 85.8845 23.0869H82.2006V26.6491H87.2422C87.7636 26.6491 88.0243 26.9011 88.0243 27.4031V27.9171C88.0243 28.4311 87.7636 28.6892 87.2422 28.6892H80.5822C80.0728 28.6892 79.8201 28.4291 79.8201 27.9091V16.2946L79.8181 16.2986Z" fill="#050A23"></path>
      <path d="M90.1793 16.2986C90.1793 15.7786 90.4339 15.5186 90.9413 15.5186H91.946C92.3792 15.5186 92.6901 15.6926 92.8766 16.0386L97.5653 23.1269C97.6896 23.3249 97.8199 23.5409 97.9563 23.7769C98.0927 24.0109 98.211 24.235 98.3093 24.445C98.4336 24.681 98.5519 24.921 98.6622 25.169H98.6983C98.6743 24.921 98.6482 24.681 98.6241 24.445C98.6001 24.235 98.584 24.0129 98.578 23.7769C98.572 23.5429 98.568 23.3249 98.568 23.1269V16.2986C98.568 15.7786 98.8287 15.5186 99.3501 15.5186H100.186C100.708 15.5186 100.968 15.7786 100.968 16.2986V27.9131C100.968 28.4331 100.708 28.6932 100.186 28.6932H99.1816C98.7605 28.6932 98.4557 28.5191 98.2712 28.1731L93.5644 21.1048C93.4401 20.9068 93.3137 20.6908 93.1834 20.4548C93.053 20.2208 92.9387 19.9968 92.8385 19.7867C92.7021 19.5527 92.5777 19.3107 92.4654 19.0627H92.4273C92.4394 19.3107 92.4574 19.5507 92.4835 19.7867C92.5076 19.9968 92.5276 20.2208 92.5396 20.4548C92.5517 20.6908 92.5577 20.9068 92.5577 21.1048V27.9131C92.5577 28.4331 92.303 28.6932 91.7956 28.6932H90.9393C90.4299 28.6932 90.1772 28.4331 90.1772 27.9131V16.2986H90.1793Z" fill="#050A23"></path>
      <path d="M104.003 16.2986C104.003 15.7786 104.257 15.5186 104.765 15.5186H111.128C111.649 15.5186 111.91 15.7766 111.91 16.2906V16.8046C111.91 17.3066 111.649 17.5586 111.128 17.5586H106.385V21.0468H110.069C110.591 21.0468 110.851 21.2988 110.851 21.8008V22.3149C110.851 22.8309 110.591 23.0869 110.069 23.0869H106.385V26.6491H111.427C111.948 26.6491 112.209 26.9011 112.209 27.4031V27.9171C112.209 28.4311 111.948 28.6892 111.427 28.6892H104.767C104.257 28.6892 104.005 28.4291 104.005 27.9091V16.2946L104.003 16.2986Z" fill="#050A23"></path>
      <path d="M114.364 16.2986C114.364 15.7786 114.619 15.5186 115.126 15.5186H118.698C119.356 15.5186 119.867 15.5466 120.232 15.6026C120.597 15.6586 120.924 15.7486 121.209 15.8726C121.878 16.1566 122.414 16.6046 122.817 17.2166C123.22 17.8287 123.423 18.5807 123.423 19.4707C123.423 19.8668 123.372 20.2508 123.274 20.6208C123.176 20.9928 123.031 21.3348 122.847 21.6508C122.66 21.9668 122.432 22.2469 122.159 22.4949C121.886 22.7429 121.576 22.9349 121.229 23.0709V23.1069L121.341 23.2749C121.379 23.3369 121.425 23.4069 121.481 23.4889C121.537 23.5689 121.596 23.6709 121.658 23.7949L123.834 27.7651C123.994 28.0371 124.022 28.2591 123.918 28.4331C123.812 28.6072 123.605 28.6932 123.294 28.6932H122.289C121.88 28.6932 121.576 28.5131 121.379 28.1551L119.053 23.7769H116.746V27.9151C116.746 28.4351 116.492 28.6952 115.984 28.6952H115.128C114.619 28.6952 114.366 28.4351 114.366 27.9151V16.3006L114.364 16.2986ZM118.902 21.6968C119.548 21.6968 120.055 21.5108 120.428 21.1388C120.801 20.7668 120.986 20.2508 120.986 19.5907C120.986 19.1687 120.902 18.7987 120.735 18.4827C120.567 18.1667 120.304 17.9327 119.945 17.7827C119.785 17.7087 119.594 17.6527 119.378 17.6147C119.161 17.5786 118.872 17.5586 118.513 17.5586H116.746V21.6968H118.904H118.902Z" fill="#050A23"></path>
      <path d="M125.228 22.1607C125.228 21.1847 125.398 20.2747 125.739 19.4326C126.08 18.5926 126.555 17.8646 127.163 17.2525C127.77 16.6405 128.49 16.1605 129.321 15.8145C130.151 15.4684 131.063 15.2944 132.056 15.2944C132.602 15.2944 133.107 15.3384 133.572 15.4244C134.037 15.5104 134.453 15.6184 134.82 15.7485C135.185 15.8785 135.501 16.0105 135.768 16.1465C136.035 16.2825 136.235 16.4005 136.372 16.4985C136.757 16.7945 136.813 17.1545 136.54 17.5745L136.205 18.0946C136.069 18.3046 135.914 18.4246 135.74 18.4566C135.566 18.4866 135.361 18.4346 135.126 18.2986C134.842 18.1266 134.457 17.9466 133.973 17.7605C133.49 17.5745 132.894 17.4825 132.186 17.4825C131.478 17.4825 130.829 17.6025 130.271 17.8445C129.714 18.0866 129.244 18.4146 128.867 18.8286C128.488 19.2426 128.202 19.7286 128.003 20.2847C127.805 20.8407 127.706 21.4287 127.706 22.0467C127.706 22.7388 127.821 23.3728 128.051 23.9488C128.28 24.5249 128.593 25.0149 128.99 25.4229C129.387 25.8309 129.852 26.1489 130.386 26.3789C130.919 26.6069 131.495 26.723 132.116 26.723C132.674 26.723 133.161 26.6489 133.576 26.5009C133.991 26.3529 134.342 26.1849 134.627 26.0009C134.95 25.7909 135.229 25.5489 135.463 25.2769V23.8108H134.198C133.676 23.8108 133.416 23.5528 133.416 23.0388V22.5428C133.416 22.0287 133.676 21.7707 134.198 21.7707H136.839C137.346 21.7707 137.601 22.0287 137.601 22.5488V27.915C137.601 28.433 137.346 28.693 136.839 28.693H136.374C136.125 28.693 135.937 28.635 135.806 28.517C135.676 28.399 135.612 28.247 135.612 28.063V27.525C135.612 27.489 135.618 27.457 135.63 27.433H135.594C135.321 27.705 134.992 27.953 134.607 28.175C134.284 28.361 133.881 28.531 133.398 28.685C132.914 28.839 132.357 28.9171 131.723 28.9171C130.843 28.9171 130.013 28.753 129.23 28.425C128.448 28.097 127.76 27.637 127.165 27.043C126.569 26.4489 126.098 25.7389 125.751 24.9089C125.404 24.0808 125.23 23.1648 125.23 22.1627" fill="#050A23"></path>
      <path d="M142.207 23.1809L138.339 16.4466C138.179 16.1866 138.15 15.9666 138.255 15.7886C138.361 15.6086 138.562 15.5186 138.86 15.5186H139.901C140.31 15.5186 140.609 15.7106 140.794 16.0946L142.578 19.3967C142.677 19.6067 142.777 19.8147 142.875 20.0188C142.974 20.2228 143.062 20.4108 143.136 20.5848C143.222 20.7828 143.302 20.9748 143.379 21.1608H143.417C143.491 20.9748 143.571 20.7828 143.659 20.5848C143.734 20.4128 143.82 20.2228 143.92 20.0188C144.018 19.8147 144.119 19.6087 144.217 19.3967L146.004 16.0946C146.19 15.7106 146.487 15.5186 146.896 15.5186H147.937C148.248 15.5186 148.452 15.6086 148.551 15.7886C148.649 15.9686 148.625 16.1866 148.476 16.4466L144.588 23.1809V27.9111C144.588 28.4311 144.333 28.6912 143.826 28.6912H142.99C142.468 28.6912 142.207 28.4311 142.207 27.9111V23.1809Z" fill="#050A23"></path>
    </g>
  </g>
  <defs>
    <clipPath id="clip0_2023_3184">
      <rect width="148.613" height="43.9893" fill="white" transform="translate(0 0.00537109)"></rect>
    </clipPath>
  </defs>
</svg>