<svg xmlns="http://www.w3.org/2000/svg" width="348" height="32" viewBox="0 0 174 16" fill="none">
  <path d="M6.09379 0.324707H5.64808V2.56471H11.7395V7.70756C11.7395 11.0904 9.61379 12.6676 7.48808 12.6676C6.87093 12.6676 6.26522 12.5419 5.69379 12.279C5.13379 12.0276 4.61951 11.6619 4.19665 11.1933C3.77379 10.7247 3.44236 10.1761 3.23665 9.58185C3.03094 8.98757 2.93951 8.34756 2.97379 7.70756V7.25042H0.710938V7.70756C0.710938 9.57042 1.36237 11.3647 2.57379 12.7476C3.20236 13.4333 3.96808 13.9819 4.81379 14.3476C5.65951 14.7133 6.57379 14.8961 7.48808 14.8847C8.39093 14.919 9.29379 14.7476 10.1281 14.3933C10.9624 14.039 11.7166 13.5133 12.3452 12.839C13.5452 11.4447 14.1852 9.62756 14.1395 7.76471V0.324707H6.08236H6.09379Z" fill="#190A00"></path>
  <path d="M36.3415 0.324707H35.8958V6.98756C35.8958 10.8276 33.5072 12.5876 31.2558 12.5876C29.0044 12.5876 26.6272 10.8276 26.6272 6.98756V0.324707H24.2387V6.98756C24.2044 8.07328 24.3758 9.14756 24.7529 10.1647C25.1301 11.1704 25.7015 12.0961 26.4444 12.8619C27.7701 14.119 29.4958 14.8161 31.3015 14.8161C33.1072 14.8161 34.8329 14.119 36.1587 12.8619C36.8901 12.0961 37.4615 11.1704 37.8387 10.1647C38.2158 9.15899 38.3872 8.07328 38.3415 6.99899V0.324707H36.3529H36.3415Z" fill="#190A00"></path>
  <path d="M59.4571 0.324707H59.0114V10.759L50.7142 0.484707L50.5771 0.324707H48.3828V14.6104H50.76V4.18756L59.0799 14.439L59.2171 14.599H61.4114V0.324707H59.4571Z" fill="#190A00"></path>
  <path d="M97.5364 12.3818V0.324707H95.125V14.6104H105.982V12.3933H97.5364V12.3818Z" fill="#190A00"></path>
  <path d="M124.509 0.324707H124.063V6.98756C124.063 10.8276 121.674 12.5876 119.423 12.5876C117.171 12.5876 114.794 10.8276 114.794 6.98756V0.324707H112.406V6.98756C112.36 8.07328 112.531 9.14756 112.92 10.1647C113.297 11.1704 113.88 12.0961 114.611 12.8619C115.937 14.119 117.663 14.8047 119.457 14.8047C121.251 14.8047 122.977 14.1076 124.303 12.8619C125.034 12.0961 125.617 11.1704 125.983 10.1647C126.36 9.15899 126.531 8.07328 126.486 6.99899V0.324707H124.509Z" fill="#190A00"></path>
  <path d="M171.389 13.8333L164.635 6.83899L171.046 1.12471L171.949 0.324707H168.349L168.235 0.438993L161.777 6.26756L160.337 7.68471V0.324707H157.938V14.6104H160.337V10.679L162.886 8.41613L168.76 14.4847L168.897 14.6104H172.155L171.4 13.8447L171.389 13.8333Z" fill="#190A00"></path>
  <path d="M120.472 2.72471H120.918V0.324707H118.289V2.72471H120.483H120.472Z" fill="#190A00"></path>
  <path d="M146.41 10.2903C145.999 11.0445 145.381 11.6617 144.65 12.0617C143.919 12.4731 143.084 12.656 142.25 12.5988C141.61 12.6217 140.97 12.496 140.376 12.256C139.781 12.0045 139.233 11.6388 138.787 11.1588C137.896 10.1417 137.416 8.81597 137.45 7.44454C137.404 6.07311 137.884 4.73597 138.787 3.73025C139.244 3.26168 139.781 2.89597 140.376 2.64454C140.97 2.40454 141.61 2.27882 142.25 2.30168C143.084 2.23311 143.93 2.41597 144.661 2.8274C145.404 3.23882 146.021 3.85597 146.433 4.61025H148.821L148.65 4.13025C148.181 2.80454 147.256 1.70739 146.056 1.03311C144.89 0.358824 143.576 0.00453782 142.25 0.00453782C141.29 -0.0297479 140.341 0.130252 139.45 0.484538C138.559 0.838824 137.747 1.3874 137.061 2.08454C136.376 2.78168 135.85 3.61597 135.496 4.54168C135.141 5.4674 134.97 6.45025 135.004 7.43311C134.981 8.41597 135.153 9.39882 135.496 10.3017C135.85 11.216 136.376 12.0388 137.05 12.736C137.724 13.4331 138.524 13.9817 139.404 14.3474C140.284 14.7131 141.233 14.8845 142.181 14.8617C143.484 14.8731 144.764 14.5417 145.907 13.8903C147.119 13.1931 148.067 12.096 148.604 10.7703L148.799 10.2788H146.41H146.421L146.41 10.2903Z" fill="#190A00"></path>
  <path d="M78.4696 6.67881V8.90738H82.7782C82.6411 10.0045 82.1039 10.9988 81.2696 11.6959C80.4353 12.3931 79.3725 12.7245 78.3096 12.6217C77.6468 12.6559 76.9725 12.5531 76.3554 12.3017C75.7268 12.0502 75.1668 11.6731 74.6868 11.1817C74.2182 10.6902 73.8411 10.1074 73.6011 9.46738C73.3611 8.82738 73.2468 8.13024 73.2811 7.44452C73.2468 6.07309 73.7268 4.73595 74.6296 3.73024C75.0982 3.25024 75.6582 2.87309 76.2754 2.62166C76.8925 2.37024 77.5554 2.25595 78.2182 2.27881C79.5896 2.27881 81.7496 2.67881 82.6639 4.54166H85.0525L84.8925 4.07309C83.8639 1.07881 80.8354 0.0045217 78.3554 0.0045217C76.3554 -0.029764 74.4239 0.73595 72.9611 2.13024C72.2754 2.81595 71.7382 3.65024 71.3725 4.55309C71.0068 5.46738 70.8125 6.43881 70.8125 7.43309C70.8125 11.7188 73.8639 14.8617 78.2982 14.8617C79.3154 14.9188 80.3439 14.7359 81.2811 14.3245C82.2296 13.9131 83.0639 13.2845 83.7382 12.496C85.2468 10.5074 85.0982 7.70738 85.0982 6.66738H78.4696V6.67881Z" fill="#190A00"></path>
</svg>